<svg width="150" height="53" viewBox="0 0 150 53" fill="none" xmlns="http://www.w3.org/2000/svg">
<path d="M33.903 21.4665C30.5718 22.0985 28.9204 21.6977 28.7621 21.021C28.71 20.7965 28.8003 20.5028 29.0315 20.148C30.2036 18.3452 34.2896 15.8052 38.9676 13.9695C41.2229 13.0827 43.4402 12.4196 45.3797 12.052C48.7079 11.4206 50.357 11.8211 50.5143 12.4977C50.5673 12.7228 50.4769 13.016 50.2463 13.3713C49.076 15.1718 44.9902 17.7129 40.3107 19.551C38.0576 20.4362 35.8421 21.0985 33.904 21.4661L33.903 21.4665Z" fill="#191B2A"/>
<path d="M34.6603 28.592C30.3367 28.9116 27.5083 27.8802 27.6739 26.7536C27.7095 26.5048 27.8955 26.234 28.2252 25.9495C29.3147 25.0099 32.0485 23.915 35.7012 23.5886C35.8209 23.5781 35.9397 23.5682 36.0575 23.5594C40.3731 23.2401 43.1974 24.2715 43.0332 25.3973C42.9969 25.6456 42.8105 25.9166 42.4794 26.2021C41.3885 27.1426 38.6547 28.2375 35.0077 28.5635C34.8909 28.5736 34.7757 28.5832 34.6607 28.5916L34.6603 28.592Z" fill="#191B2A"/>
<path d="M31.8333 34.096C31.8172 32.0577 30.0694 30.4178 27.9294 30.433C26.5428 30.4429 25.3324 31.1459 24.6558 32.1934L24.6552 32.193L24.6446 32.2106C24.6204 32.2487 24.597 32.287 24.5744 32.3262L21.2279 37.8368L7.24078 14.4974C6.17961 12.7269 3.81307 12.1114 1.95401 13.1214C0.137611 14.109 -0.520485 16.2841 0.440998 18.0346L0.440212 18.0353L0.459875 18.0677C0.476391 18.0973 0.492314 18.1271 0.509421 18.1563C0.526723 18.1855 0.545796 18.2134 0.563688 18.2415L20.6455 51.7562L20.6463 51.7517C20.7527 51.947 20.965 52.082 21.2116 52.082C21.4438 52.082 21.6455 51.9628 21.7572 51.7858L21.758 51.7882L31.3648 35.8884L31.3624 35.8873C31.667 35.3553 31.8382 34.7444 31.8333 34.096Z" fill="#191B2A"/>
<path d="M49.8105 0.484148C48.8215 -0.9467 43.2354 0.90155 37.3338 4.61078C31.4318 8.32151 27.4498 12.489 28.4388 13.9194C29.4278 15.3505 35.0143 13.5026 40.9159 9.79187C46.8171 6.08208 50.7999 1.91518 49.8105 0.484148Z" fill="#191B2A"/>
<path d="M77.8452 15.0049L72.8313 28.1882H72.7699L67.3671 15.0049H62.6526L71.248 37.0037H73.8157L82.5626 15.0049H77.8452Z" fill="#191B2A"/>
<path d="M84.7403 27.625C84.7988 27.2649 84.898 26.9144 85.0391 26.5717C85.1775 26.2328 85.363 25.9358 85.5906 25.6783C85.8211 25.424 86.0986 25.2138 86.4268 25.0524C86.7556 24.8907 87.1281 24.8098 87.5454 24.8098C87.9428 24.8098 88.2996 24.8907 88.619 25.0524C88.9373 25.2138 89.2178 25.4277 89.4565 25.6923C89.6938 25.9591 89.8848 26.2555 90.0216 26.5863C90.1614 26.9188 90.2623 27.2649 90.3207 27.625H84.7403ZM92.575 24.2414C92.0085 23.5588 91.2866 23.0187 90.4128 22.6222C89.5358 22.2245 88.5001 22.0251 87.3074 22.0251C86.113 22.0251 85.073 22.2183 84.1885 22.6063C83.3034 22.9975 82.5674 23.5308 81.9787 24.2128C81.3923 24.8956 80.9502 25.6961 80.6504 26.6162C80.352 27.5351 80.2031 28.5246 80.2031 29.5856C80.2031 30.6466 80.3723 31.6237 80.7108 32.5143C81.0488 33.4052 81.5314 34.1788 82.1593 34.8319C82.7839 35.483 83.5512 35.9918 84.4566 36.3503C85.363 36.7116 86.3801 36.8926 87.516 36.8926C89.0695 36.8926 90.434 36.5135 91.6183 35.7585C92.8022 35.0038 93.6544 33.9214 94.1716 32.5143L90.3207 31.9178C90.0419 32.4673 89.6798 32.921 89.2318 33.2801C88.7838 33.6415 88.2111 33.8225 87.516 33.8225C86.9795 33.8225 86.5218 33.7071 86.1411 33.4835C85.7636 33.2568 85.4658 32.9679 85.249 32.606C85.029 32.2512 84.8677 31.8516 84.7713 31.4106C84.6695 30.9672 84.6202 30.5312 84.6202 30.0993H94.2611V29.6151C94.2611 28.5731 94.1217 27.5867 93.8425 26.6594C93.5636 25.7287 93.1428 24.9233 92.575 24.2414Z" fill="#191B2A"/>
<path d="M104.175 22.0251C103.398 22.0251 102.704 22.1909 102.087 22.5208C101.47 22.8536 100.952 23.3219 100.534 23.9304H100.476V22.4813H96.2964V36.4352H100.476V30.154C100.476 29.6245 100.505 29.0831 100.564 28.5318C100.625 27.9845 100.763 27.4869 100.982 27.0425C101.202 26.5954 101.524 26.2372 101.952 25.962C102.381 25.688 102.952 25.5484 103.67 25.5484C104.306 25.5484 104.883 25.721 105.402 26.0611L105.908 22.3653C105.629 22.2711 105.345 22.1909 105.058 22.124C104.769 22.0578 104.476 22.0251 104.175 22.0251Z" fill="#191B2A"/>
<path d="M116.086 29.2606C115.797 28.9465 115.474 28.6847 115.114 28.4789C114.759 28.2699 114.39 28.0883 114.012 27.9359C113.633 27.7842 113.265 27.6498 112.908 27.5255C112.548 27.402 112.225 27.2705 111.938 27.129C111.649 26.9856 111.421 26.8295 111.252 26.6594C111.083 26.4875 110.996 26.2707 110.996 26.0045C110.996 25.6634 111.142 25.3792 111.432 25.1513C111.718 24.9242 112.031 24.8095 112.37 24.8095C112.787 24.8095 113.187 24.9053 113.563 25.0959C113.944 25.285 114.28 25.512 114.579 25.7775L116.369 23.4761C115.772 22.9813 115.032 22.6182 114.147 22.38C113.26 22.143 112.43 22.0251 111.653 22.0251C110.958 22.0251 110.326 22.1396 109.756 22.3653C109.193 22.5939 108.704 22.9058 108.296 23.3044C107.887 23.7028 107.569 24.1814 107.341 24.7402C107.111 25.3008 106.998 25.9001 106.998 26.5441C106.998 27.1125 107.083 27.5923 107.251 27.9798C107.421 28.3703 107.639 28.7049 107.907 28.9891C108.175 29.2746 108.489 29.5103 108.848 29.7009C109.208 29.8909 109.563 30.0604 109.923 30.2119C110.281 30.3642 110.64 30.4983 110.996 30.623C111.355 30.7467 111.67 30.8848 111.938 31.0365C112.206 31.1877 112.424 31.3634 112.594 31.5624C112.762 31.7623 112.846 32.0127 112.846 32.3137C112.846 32.7686 112.684 33.1368 112.355 33.4101C112.027 33.6835 111.635 33.8225 111.176 33.8225C110.559 33.8225 109.987 33.6601 109.46 33.337C108.935 33.0164 108.47 32.6368 108.071 32.2027L106.162 34.5591C106.797 35.2995 107.569 35.8742 108.475 36.2809C109.379 36.6886 110.331 36.8926 111.326 36.8926C112.101 36.8926 112.832 36.7797 113.521 36.5499C114.204 36.3217 114.807 35.9967 115.325 35.5704C115.841 35.1447 116.255 34.6266 116.562 34.0205C116.872 33.4132 117.026 32.7213 117.026 31.9458C117.026 31.3397 116.941 30.8186 116.771 30.3807C116.604 29.9463 116.375 29.5728 116.086 29.2606Z" fill="#191B2A"/>
<path d="M120.875 16.041C120.237 16.041 119.701 16.2559 119.265 16.6788C118.83 17.102 118.611 17.6092 118.611 18.1988C118.611 18.8039 118.83 19.3133 119.265 19.7266C119.701 20.1429 120.237 20.35 120.875 20.35C121.509 20.35 122.046 20.1429 122.481 19.7266C122.918 19.3133 123.137 18.8039 123.137 18.1988C123.137 17.6092 122.918 17.102 122.481 16.6788C122.046 16.2559 121.509 16.041 120.875 16.041Z" fill="#191B2A"/>
<path d="M122.963 22.4814H118.784V36.4353H122.963V22.4814Z" fill="#191B2A"/>
<path d="M144.743 22.4813L141.128 29.9954L137.49 22.4813H132.545H131.951H131.683V16.4072H127.503V22.4813H124.673V25.8338H127.503V36.4351H131.683V25.8338H134.882L138.982 34.3041L135.477 41.223H140.073L149.402 22.4813H144.743Z" fill="#191B2A"/>
</svg>